<svg xmlns="http://www.w3.org/2000/svg" viewBox="0 0 119 121"><defs><style>.cls-1{fill:#2c68b0;}.cls-2{fill:#fff;}</style></defs><g id="Layer_2" data-name="Layer 2"><g id="Layer_1-2" data-name="Layer 1"><path class="cls-1" d="M59.5,0h0A59.5,59.5,0,0,1,119,59.5v2A59.5,59.5,0,0,1,59.5,121h0A59.5,59.5,0,0,1,0,61.5v-2A59.5,59.5,0,0,1,59.5,0Z"/><path class="cls-2" d="M89.75,57.34a9.46,9.46,0,1,0-10.86,0,16.52,16.52,0,0,0-5.59,3.28,21.17,21.17,0,0,0-7.68-4.18,12,12,0,1,0-12.4,0,21.25,21.25,0,0,0-7.6,4.13,16.6,16.6,0,0,0-5.53-3.21,9.47,9.47,0,1,0-10.86,0A16.6,16.6,0,0,0,18,73.06v1.08s0,.06.07.07H38.17A21.36,21.36,0,0,0,38,77V78.1a8.72,8.72,0,0,0,8.72,8.72H72.15a8.72,8.72,0,0,0,8.73-8.72h0V77a21.36,21.36,0,0,0-.18-2.77h20.2a.07.07,0,0,0,.06-.07V73.06A16.67,16.67,0,0,0,89.75,57.34ZM77.48,49.58a6.85,6.85,0,1,1,7,6.84h-.26A6.83,6.83,0,0,1,77.48,49.58ZM50,46.17a9.37,9.37,0,1,1,9.91,9.35H58.84A9.38,9.38,0,0,1,50,46.17ZM27.77,49.58a6.84,6.84,0,1,1,7,6.84h-.26A6.84,6.84,0,0,1,27.77,49.58Zm10.86,22H20.7A14,14,0,0,1,34.51,59.05h.2a13.89,13.89,0,0,1,8.94,3.33,21.56,21.56,0,0,0-5,9.18Zm39.59,6.53a6.11,6.11,0,0,1-6.1,6.1H46.69a6.1,6.1,0,0,1-6.1-6.1V77A18.84,18.84,0,0,1,58.84,58.16a5.24,5.24,0,0,0,.56,0,5.33,5.33,0,0,0,.56,0A18.85,18.85,0,0,1,78.22,77Zm2-6.53a21.41,21.41,0,0,0-5-9.12,14,14,0,0,1,9-3.4h.2A14,14,0,0,1,98.24,71.56Z"/></g></g></svg>