<svg xmlns="http://www.w3.org/2000/svg" viewBox="0 0 119 121"><defs><style>.cls-1{fill:#2c68b0;}.cls-2{fill:#fff;}</style></defs><g id="Layer_2" data-name="Layer 2"><g id="Layer_1-2" data-name="Layer 1"><path class="cls-1" d="M59.5,0h0A59.5,59.5,0,0,1,119,59.5v2A59.5,59.5,0,0,1,59.5,121h0A59.5,59.5,0,0,1,0,61.5v-2A59.5,59.5,0,0,1,59.5,0Z"/><path class="cls-2" d="M92,35.83H76.35V31a6,6,0,0,0-6-6H48.67a6,6,0,0,0-6,6v4.81H27a3.61,3.61,0,0,0-3.61,3.61h0v26.8a3.64,3.64,0,0,0,2.41,3.4V86.39A3.61,3.61,0,0,0,29.41,90H89.59a3.61,3.61,0,0,0,3.61-3.61V69.64a3.64,3.64,0,0,0,2.41-3.4V39.44A3.61,3.61,0,0,0,92,35.83ZM45.06,31a3.6,3.6,0,0,1,3.61-3.61H70.33A3.6,3.6,0,0,1,73.94,31v4.81h-2.4V31a1.2,1.2,0,0,0-1.2-1.2H48.67a1.2,1.2,0,0,0-1.2,1.2h0v4.81H45.06Zm24.07,4.81H49.87V32.22H69.13ZM90.8,86.39a1.2,1.2,0,0,1-1.2,1.2H29.41a1.2,1.2,0,0,1-1.2-1.2h0V70.05L54.69,73.7v3.06a3.61,3.61,0,0,0,3.61,3.61h2.41a3.61,3.61,0,0,0,3.61-3.61V73.7L90.8,70.05ZM61.91,76.76a1.2,1.2,0,0,1-1.2,1.2H58.3a1.2,1.2,0,0,1-1.2-1.2h0V69.54a1.2,1.2,0,0,1,1.2-1.2h2.41a1.2,1.2,0,0,1,1.2,1.2Zm31.3-10.52a1.2,1.2,0,0,1-1,1.19l-.33,0-27.52,3.8V69.54a3.61,3.61,0,0,0-3.61-3.61H58.3a3.61,3.61,0,0,0-3.61,3.61v1.74L26.84,67.43a1.2,1.2,0,0,1-1-1.19V39.44a1.2,1.2,0,0,1,1.2-1.2H92a1.2,1.2,0,0,1,1.2,1.2Z"/></g></g></svg>